<svg xmlns="http://www.w3.org/2000/svg" width="24.267" height="22.367" viewBox="0 0 24.267 22.367">
  <g id="Group_1403" data-name="Group 1403" transform="translate(-91.372 -220.017)">
    <path id="Path_3224" data-name="Path 3224" d="M105.694,221.581a2.314,2.314,0,0,0-4.378,0L91.848,238.5a2.42,2.42,0,0,0,2.294,3.885h18.726a2.42,2.42,0,0,0,2.294-3.885Z" fill="#fff"/>
    <g id="Group_1402" data-name="Group 1402" transform="translate(102.12 225.031)">
      <path id="Path_3225" data-name="Path 3225" d="M126.977,273.922a1.248,1.248,0,1,0,1.248,1.248A1.248,1.248,0,0,0,126.977,273.922Z" transform="translate(-125.592 -261.858)" fill="#bf0000"/>
      <path id="Path_3226" data-name="Path 3226" d="M126.682,246.452c.458,0,.865-.56.906-1.246l.477-8.117a1.165,1.165,0,0,0-1.174-1.246h-.416a1.166,1.166,0,0,0-1.175,1.246l.477,8.117C125.817,245.892,126.224,246.452,126.682,246.452Z" transform="translate(-125.297 -235.844)" fill="#bf0000"/>
    </g>
  </g>
</svg>
